<svg width="200" height="43" viewBox="0 0 200 43" fill="none" xmlns="http://www.w3.org/2000/svg">
<path fill-rule="evenodd" clip-rule="evenodd" d="M182.567 6.77352H175.805V0H182.567V6.77352ZM6.22989 34.8107H0V1.33449H8.08264L17.578 25.3919H17.717L27.2123 1.33449H35.295V34.8107H29.0651V12.1684H28.8566L19.8476 34.8107H15.4473L6.41516 12.1684H6.22989V34.8107ZM63.4171 22.376C63.4171 30.4956 58.6231 35.321 51.1195 35.321C43.5695 35.321 38.8218 30.4724 38.8218 22.376V22.3296C38.8218 14.3259 43.6853 9.43095 51.0963 9.43095C58.5305 9.43095 63.4171 14.2795 63.4171 22.3296V22.376ZM45.7002 22.376C45.7002 27.2478 47.8077 30.0085 51.1426 30.0085C54.4313 30.0085 56.5388 27.2246 56.5388 22.376V22.3296C56.5388 17.5274 54.385 14.7435 51.0963 14.7435C47.8308 14.7435 45.7002 17.5274 45.7002 22.3296V22.376ZM66.9891 34.8107H73.7516V20.5201C73.7516 17.2722 75.6739 15.0451 78.7078 15.0451C81.7417 15.0451 83.2702 16.901 83.2702 20.1489V34.8107H90.0327V18.7569C90.0327 12.934 86.9294 9.43095 81.4637 9.43095C77.7119 9.43095 75.1644 11.1709 73.8906 14.0244H73.7516V9.94133H66.9891V34.8107ZM116.661 27.4566C115.896 31.122 112.469 35.321 105.382 35.321C97.7856 35.321 93.1768 30.3797 93.1768 22.4224V22.3992C93.1768 14.4883 97.8319 9.43095 105.104 9.43095C112.376 9.43095 116.938 14.3723 116.938 21.8888V23.9767H99.8468C99.9162 27.9438 102.07 30.2637 105.521 30.2637C108.3 30.2637 109.991 28.7325 110.477 27.3406L110.523 27.2014H116.73L116.661 27.4566ZM110.454 19.7081C110.037 16.2747 108.022 14.4883 105.22 14.4883C102.441 14.4883 100.356 16.3443 99.9162 19.7081H110.454ZM123.475 42.9999C128.987 42.9999 132.322 41.1208 134.267 35.2514L142.79 9.94133H135.657L130.399 29.3821H130.214L124.98 9.94133H117.546L126.323 34.8107L126.022 35.6226C125.42 37.3162 124.309 37.8961 122.294 37.8961C121.298 37.8961 120.51 37.7569 120.024 37.6641V42.6983C120.811 42.8375 122.155 42.9999 123.475 42.9999ZM152.488 34.8107H145.494V1.33449H152.488V16.6458H152.65L164.901 1.33449H172.683L160.71 16.1123L173.54 34.8107H165.179L155.615 20.6825L152.488 24.5567V34.8107ZM175.804 34.8107H182.567V9.94133H175.804V34.8107ZM200 35.0658C199.236 35.1818 198.147 35.321 196.735 35.321C191.223 35.321 188.629 33.1867 188.629 27.851V15.0451H185.178V9.94133H188.629V3.86319H195.461V9.94133H200V15.0451H195.461V27.1086C195.461 29.4285 196.503 30.2173 198.541 30.2173C199.031 30.2173 199.413 30.1712 199.764 30.129C199.844 30.1194 199.922 30.1099 200 30.1013V35.0658Z" fill="currentColor"/>
</svg>
